<svg width="967" height="894" viewBox="0 0 967 894" fill="none" xmlns="http://www.w3.org/2000/svg">
<path d="M408.382 822.555C311.641 836.407 235.855 811.083 191.44 759.086C147.026 707.089 133.861 628.276 162.666 534.89C191.472 441.5 256.78 351.3 339.107 280.978C421.435 210.656 520.735 160.252 617.48 146.4C714.222 132.548 790.008 157.872 834.422 209.869C878.836 261.866 892.001 340.679 863.196 434.066C834.39 527.456 769.083 617.655 686.755 687.977C604.427 758.299 505.127 808.703 408.382 822.555Z" stroke="url(#paint0_linear_2166_295)" stroke-width="1.20396"/>
<path d="M387.426 868.701C274.147 882.709 184.485 850.92 131.016 788.323C77.5466 725.725 60.1653 632.195 91.7096 522.499C123.255 412.798 197.746 307.769 292.706 226.657C387.666 145.544 503.049 88.3886 616.333 74.3802C729.612 60.3724 819.275 92.1615 872.744 154.759C926.213 217.356 943.594 310.886 912.05 420.582C880.504 530.284 806.013 635.313 711.053 716.425C616.093 797.537 500.71 854.693 387.426 868.701Z" stroke="url(#paint1_linear_2166_295)" stroke-width="1.20396"/>
<path d="M387.426 868.701C274.147 882.709 184.485 850.92 131.016 788.323C77.5466 725.725 60.1653 632.195 91.7096 522.499C123.255 412.798 197.746 307.769 292.706 226.657C387.666 145.544 503.049 88.3886 616.333 74.3802C729.612 60.3724 819.275 92.1615 872.744 154.759C926.213 217.356 943.594 310.886 912.05 420.582C880.504 530.284 806.013 635.313 711.053 716.425C616.093 797.537 500.71 854.693 387.426 868.701Z" stroke="url(#paint2_linear_2166_295)" stroke-opacity="0.2" stroke-width="1.20396"/>
<path d="M377.391 856.919C259.699 865.753 164.215 827.192 104.929 757.785C45.6426 688.377 22.483 588.039 49.6071 473.175C76.7331 358.303 149.009 250.694 243.959 169.59C338.91 88.4859 456.494 33.9212 574.194 25.0866C691.886 16.2526 787.37 54.8133 846.657 124.221C905.943 193.629 929.102 293.967 901.978 408.831C874.852 523.703 802.577 631.312 707.626 712.416C612.676 793.52 495.091 848.084 377.391 856.919Z" stroke="url(#paint3_linear_2166_295)" stroke-width="1.20396"/>
<path d="M293.749 227.626L287.933 198.387L316.034 208.338L321.851 237.576L293.749 227.626Z" fill="url(#paint4_linear_2166_295)"/>
<path d="M316.035 208.343L287.933 198.393L265.615 251.977L316.035 208.343Z" fill="url(#paint5_linear_2166_295)" fill-opacity="0.6"/>
<path d="M316.034 208.343L321.884 237.573L265.615 251.977L316.034 208.343Z" fill="url(#paint6_linear_2166_295)"/>
<path d="M403.033 127.617L430.426 176.842L387.395 168.55L403.033 127.617Z" fill="url(#paint7_linear_2166_295)"/>
<path d="M403.036 127.617L430.429 176.843L510.375 100.12L403.036 127.617Z" fill="url(#paint8_linear_2166_295)"/>
<path d="M336.808 135.035L387.417 168.546L403.035 127.618L336.808 135.035Z" fill="url(#paint9_linear_2166_295)"/>
<path d="M389.212 229.211L387.416 168.544L336.808 135.039L308.822 151.29L317.007 207.725L360.65 244.427L389.212 229.211Z" fill="url(#paint10_linear_2166_295)" fill-opacity="0.5"/>
<path d="M365.908 212.747L414.232 227.432L430.429 176.842L403.036 127.617L351.507 114.715L338.515 163.521L365.908 212.747Z" fill="url(#paint11_radial_2166_295)" fill-opacity="0.5"/>
<path d="M338.516 163.52L365.909 212.745L317.001 207.723L338.516 163.52Z" fill="url(#paint12_linear_2166_295)"/>
<path d="M338.516 163.521L365.909 212.747L510.374 100.118L338.516 163.521Z" fill="url(#paint13_linear_2166_295)" fill-opacity="0.9"/>
<path d="M360.653 244.428L365.909 212.747L317.001 207.724L360.653 244.428Z" fill="url(#paint14_linear_2166_295)" fill-opacity="0.5"/>
<path d="M308.822 151.287L338.515 163.52L317.003 207.729L308.822 151.287Z" fill="url(#paint15_linear_2166_295)" fill-opacity="0.5"/>
<path d="M360.653 244.431L365.909 212.749L414.232 227.435L360.653 244.431Z" fill="url(#paint16_linear_2166_295)"/>
<path d="M308.823 151.286L338.516 163.52L351.508 114.714L308.823 151.286Z" fill="url(#paint17_linear_2166_295)"/>
<path d="M308.823 151.286L338.516 163.52L351.508 114.714L308.823 151.286Z" fill="url(#paint18_linear_2166_295)" fill-opacity="0.6"/>
<path d="M510.376 100.118L365.909 212.748L414.232 227.434L510.376 100.118Z" fill="url(#paint19_linear_2166_295)" fill-opacity="0.9"/>
<path d="M510.376 100.116L338.512 163.515L351.504 114.709L510.376 100.116Z" fill="url(#paint20_linear_2166_295)" fill-opacity="0.9"/>
<defs>
<linearGradient id="paint0_linear_2166_295" x1="254.979" y1="182.486" x2="535.382" y2="510.761" gradientUnits="userSpaceOnUse">
<stop stop-color="#8FBCFF" stop-opacity="0.6"/>
<stop offset="1" stop-color="#8FBCFF" stop-opacity="0"/>
</linearGradient>
<linearGradient id="paint1_linear_2166_295" x1="179.063" y1="93.6116" x2="563.421" y2="543.588" gradientUnits="userSpaceOnUse">
<stop stop-color="white" stop-opacity="0.6"/>
<stop offset="0.34375" stop-color="#8FBCFF" stop-opacity="0.6"/>
<stop offset="1" stop-color="#8FBCFF" stop-opacity="0"/>
</linearGradient>
<linearGradient id="paint2_linear_2166_295" x1="530.253" y1="97.7841" x2="566.654" y2="255.453" gradientUnits="userSpaceOnUse">
<stop stop-color="#FF48D7"/>
<stop offset="0.234164" stop-color="white" stop-opacity="0.765836"/>
<stop offset="1" stop-color="#FF48D7" stop-opacity="0"/>
</linearGradient>
<linearGradient id="paint3_linear_2166_295" x1="223.387" y1="145.504" x2="501.655" y2="471.279" gradientUnits="userSpaceOnUse">
<stop stop-color="#8FBCFF" stop-opacity="0.6"/>
<stop offset="1" stop-color="#8FBCFF" stop-opacity="0"/>
</linearGradient>
<linearGradient id="paint4_linear_2166_295" x1="286.615" y1="216.664" x2="323.169" y2="219.299" gradientUnits="userSpaceOnUse">
<stop stop-color="#6083FF"/>
<stop offset="1" stop-color="#0C1E5E" stop-opacity="0"/>
</linearGradient>
<linearGradient id="paint5_linear_2166_295" x1="295.118" y1="194.53" x2="265.461" y2="251.798" gradientUnits="userSpaceOnUse">
<stop offset="0.170794" stop-color="#3D3BA9"/>
<stop offset="0.537799" stop-color="#FF7BE2" stop-opacity="0.8"/>
<stop offset="0.791667" stop-color="white"/>
</linearGradient>
<linearGradient id="paint6_linear_2166_295" x1="265.815" y1="252.209" x2="319.486" y2="234.303" gradientUnits="userSpaceOnUse">
<stop stop-color="#3DDCFF"/>
<stop offset="0.427083" stop-color="#9D50FF" stop-opacity="0.5"/>
<stop offset="0.977116" stop-color="#3DDCFF"/>
</linearGradient>
<linearGradient id="paint7_linear_2166_295" x1="363.843" y1="213.894" x2="323.723" y2="156.8" gradientUnits="userSpaceOnUse">
<stop stop-color="white"/>
<stop offset="0.227296" stop-color="#47FFDE" stop-opacity="0.8"/>
<stop offset="1" stop-color="#6D61FF" stop-opacity="0.5"/>
</linearGradient>
<linearGradient id="paint8_linear_2166_295" x1="363.844" y1="213.898" x2="323.724" y2="156.804" gradientUnits="userSpaceOnUse">
<stop stop-color="white"/>
<stop offset="0.227296" stop-color="#47FFDE" stop-opacity="0.8"/>
<stop offset="1" stop-color="#6D61FF" stop-opacity="0.5"/>
</linearGradient>
<linearGradient id="paint9_linear_2166_295" x1="348.683" y1="116.287" x2="368.676" y2="156.818" gradientUnits="userSpaceOnUse">
<stop stop-color="white"/>
<stop offset="0.227296" stop-color="#47FFDE" stop-opacity="0.8"/>
<stop offset="1" stop-color="#6D61FF" stop-opacity="0.5"/>
</linearGradient>
<linearGradient id="paint10_linear_2166_295" x1="404.34" y1="159.126" x2="300.082" y2="217.143" gradientUnits="userSpaceOnUse">
<stop stop-color="#6D61FF"/>
<stop offset="1" stop-color="#47FFDE"/>
</linearGradient>
<radialGradient id="paint11_radial_2166_295" cx="0" cy="0" r="1" gradientUnits="userSpaceOnUse" gradientTransform="translate(384.472 170.182) rotate(-119.095) scale(95.5037 54.6676)">
<stop stop-color="#6D61FF"/>
<stop offset="1" stop-color="#47FFDE"/>
</radialGradient>
<linearGradient id="paint12_linear_2166_295" x1="363.843" y1="213.895" x2="323.724" y2="156.801" gradientUnits="userSpaceOnUse">
<stop stop-color="white"/>
<stop offset="0.227296" stop-color="#47FFDE" stop-opacity="0.8"/>
<stop offset="1" stop-color="#6D61FF" stop-opacity="0.5"/>
</linearGradient>
<linearGradient id="paint13_linear_2166_295" x1="348.485" y1="211.053" x2="431.327" y2="253.738" gradientUnits="userSpaceOnUse">
<stop offset="0.0729167" stop-color="#4B86FA" stop-opacity="0.8"/>
<stop offset="0.791667" stop-color="#FCA6EF" stop-opacity="0.8"/>
<stop offset="1" stop-color="white"/>
</linearGradient>
<linearGradient id="paint14_linear_2166_295" x1="365.169" y1="211.418" x2="313.875" y2="209.139" gradientUnits="userSpaceOnUse">
<stop stop-color="#7BFFE7" stop-opacity="0.8"/>
<stop offset="1" stop-color="#322994" stop-opacity="0.5"/>
</linearGradient>
<linearGradient id="paint15_linear_2166_295" x1="339.255" y1="164.849" x2="305.217" y2="158.956" gradientUnits="userSpaceOnUse">
<stop stop-color="#7BFFE7" stop-opacity="0.9"/>
<stop offset="1" stop-color="#322994" stop-opacity="0.5"/>
</linearGradient>
<linearGradient id="paint16_linear_2166_295" x1="411.409" y1="229.006" x2="349.727" y2="206.379" gradientUnits="userSpaceOnUse">
<stop stop-color="white"/>
<stop offset="0.586705" stop-color="#47FFDE" stop-opacity="0.9"/>
<stop offset="1" stop-color="#6D61FF" stop-opacity="0.5"/>
</linearGradient>
<linearGradient id="paint17_linear_2166_295" x1="310.761" y1="151.4" x2="341.928" y2="169.395" gradientUnits="userSpaceOnUse">
<stop stop-color="#0A3892"/>
<stop offset="0.536458" stop-color="#29B2ED" stop-opacity="0.8"/>
<stop offset="0.967948" stop-color="white"/>
</linearGradient>
<linearGradient id="paint18_linear_2166_295" x1="331.654" y1="169.452" x2="329.762" y2="136.806" gradientUnits="userSpaceOnUse">
<stop stop-color="#FF439D"/>
<stop offset="1" stop-color="#FF43D6" stop-opacity="0"/>
</linearGradient>
<linearGradient id="paint19_linear_2166_295" x1="491.434" y1="151.726" x2="452.987" y2="114.798" gradientUnits="userSpaceOnUse">
<stop offset="0.0729167" stop-color="#4B86FA" stop-opacity="0.8"/>
<stop offset="0.791667" stop-color="#FCA6EF" stop-opacity="0.8"/>
<stop offset="1" stop-color="white"/>
</linearGradient>
<linearGradient id="paint20_linear_2166_295" x1="199.226" y1="139.365" x2="271.378" y2="-12.9771" gradientUnits="userSpaceOnUse">
<stop offset="0.0729167" stop-color="#4B86FA" stop-opacity="0.8"/>
<stop offset="0.791667" stop-color="#FCA6EF" stop-opacity="0.8"/>
<stop offset="1" stop-color="white"/>
</linearGradient>
</defs>
</svg>
